<svg width="121" height="42" viewBox="0 0 121 42" fill="none" xmlns="http://www.w3.org/2000/svg">
<line y1="40" x2="120" y2="40" stroke="black" stroke-width="4"/>
<path d="M10.768 5.25599H11.872V9.52799H10.432C8.92801 9.52799 7.28001 10.136 5.48801 11.352V33H0.976013V5.39999H5.29601V7.41599C5.39201 7.35199 5.56801 7.22399 5.82401 7.03199C6.11201 6.83999 6.28801 6.72799 6.35201 6.69599C6.44801 6.63199 6.60801 6.51999 6.83201 6.35999C7.08801 6.2 7.26401 6.10399 7.36001 6.07199C7.45601 6.03999 7.60001 5.97599 7.79201 5.88C8.01601 5.752 8.19201 5.67199 8.32001 5.63999C8.44801 5.60799 8.60801 5.55999 8.80001 5.49599C9.02401 5.39999 9.23201 5.35199 9.42401 5.35199C10 5.28799 10.448 5.25599 10.768 5.25599Z" fill="black"/>
<path d="M17.9174 25.08V26.52C17.9174 27.576 18.1574 28.36 18.6374 28.872C19.1494 29.384 20.1254 29.64 21.5654 29.64C23.0374 29.64 24.3814 29.144 25.5974 28.152V20.136L21.0374 21.384C19.7894 21.736 18.9574 22.184 18.5414 22.728C18.1254 23.24 17.9174 24.024 17.9174 25.08ZM14.7974 6.07199C16.6214 5.46399 18.9414 5.15999 21.7574 5.15999C27.2294 5.15999 29.9654 7.63999 29.9654 12.6V33H25.6454V31.032C24.2374 32.44 22.3814 33.144 20.0774 33.144C15.6614 33.144 13.4534 30.92 13.4534 26.472V24.888C13.4534 23.096 13.9174 21.656 14.8454 20.568C15.7734 19.448 17.2614 18.6 19.3094 18.024L25.5974 16.296V12.6C25.5974 11.416 25.2774 10.568 24.6374 10.056C23.9974 9.51199 22.6374 9.23999 20.5574 9.23999C18.5094 9.23999 16.5894 9.55999 14.7974 10.2V6.07199Z" fill="black"/>
<path d="M40.3195 0.455994V5.39999H45.8875V9.28799H40.3195V26.424C40.3195 28.28 41.2795 29.208 43.1995 29.208C44.1275 29.208 45.1675 29.016 46.3195 28.632V32.712C46.2875 32.712 46.1275 32.744 45.8395 32.808C45.5835 32.872 45.3115 32.936 45.0235 33C44.1595 33.192 43.3275 33.288 42.5275 33.288C38.0475 33.288 35.8075 31.112 35.8075 26.76V9.28799H32.9275V5.39999H35.9515L37.2955 0.455994H40.3195Z" fill="black"/>
<path d="M49.5273 25.704V12.456C49.5273 10.152 50.1993 8.32799 51.5433 6.98399C52.8873 5.60799 54.9353 4.91999 57.6873 4.91999C60.4393 4.91999 62.4713 5.60799 63.7833 6.98399C65.0953 8.32799 65.7513 10.152 65.7513 12.456V21.24H53.9433V25.464C53.9433 26.744 54.3273 27.688 55.0953 28.296C55.8953 28.904 57.2713 29.208 59.2233 29.208C61.2073 29.208 63.1273 28.92 64.9833 28.344V32.472C63.0633 32.984 61.0153 33.24 58.8393 33.24C52.6313 33.24 49.5273 30.728 49.5273 25.704ZM53.9433 17.592H61.4793V12.504C61.4793 10.008 60.2153 8.76 57.6873 8.76C55.1913 8.76 53.9433 10.008 53.9433 12.504V17.592Z" fill="black"/>
<path d="M85.5066 7.17599C87.6826 5.92799 89.8266 5.30399 91.9386 5.30399C94.0826 5.30399 95.7146 5.83199 96.8346 6.88799C97.9866 7.94399 98.5626 9.49599 98.5626 11.544V33H94.0026V12.312C94.0026 10.424 93.0426 9.47999 91.1226 9.47999C89.5866 9.47999 88.1306 9.91199 86.7546 10.776C86.9146 11.128 86.9946 11.624 86.9946 12.264V33H82.3866V12.312C82.3866 10.424 81.4426 9.47999 79.5546 9.47999C78.1786 9.47999 76.7866 9.83199 75.3786 10.536V33H70.8666V5.39999H75.1866V6.64799C77.2346 5.75199 79.1866 5.30399 81.0426 5.30399C82.8986 5.30399 84.3866 5.92799 85.5066 7.17599Z" fill="black"/>
<path d="M103.809 25.704V12.456C103.809 10.152 104.481 8.32799 105.825 6.98399C107.169 5.60799 109.217 4.91999 111.969 4.91999C114.721 4.91999 116.753 5.60799 118.065 6.98399C119.377 8.32799 120.033 10.152 120.033 12.456V21.24H108.225V25.464C108.225 26.744 108.609 27.688 109.377 28.296C110.177 28.904 111.553 29.208 113.505 29.208C115.489 29.208 117.409 28.92 119.265 28.344V32.472C117.345 32.984 115.297 33.24 113.121 33.24C106.913 33.24 103.809 30.728 103.809 25.704ZM108.225 17.592H115.761V12.504C115.761 10.008 114.497 8.76 111.969 8.76C109.473 8.76 108.225 10.008 108.225 12.504V17.592Z" fill="black"/>
</svg>
