<svg width="101" height="41" viewBox="0 0 101 41" fill="none" xmlns="http://www.w3.org/2000/svg">
<mask id="path-1-outside-1_46_1510" maskUnits="userSpaceOnUse" x="0.441681" y="0.136017" width="101" height="41" fill="black">
<rect fill="white" x="0.441681" y="0.136017" width="101" height="41"/>
<path d="M10.992 10.128C11.44 8.97602 12.064 8.11202 12.864 7.53602C13.696 6.92802 14.48 6.56002 15.216 6.43202C15.984 6.27202 16.608 6.35202 17.088 6.67202C17.6 6.99202 17.776 7.48802 17.616 8.16002C18.224 7.55202 19.104 6.99202 20.256 6.48002C21.408 5.96802 22.32 5.61602 22.992 5.42402C23.664 5.23202 24.24 5.13602 24.72 5.13602C25.776 5.20002 26.08 5.77602 25.632 6.86402C26.176 6.96002 26.576 7.31202 26.832 7.92002C27.088 8.52802 27.12 9.20002 26.928 9.93602C26.736 10.672 26.304 11.392 25.632 12.096C24.96 12.8 24.048 13.28 22.896 13.536C21.776 13.792 20.832 14.384 20.064 15.312C19.328 16.208 18.672 17.328 18.096 18.672C17.136 20.944 16.272 24.16 15.504 28.32C15.248 29.824 14.208 31.088 12.384 32.112C10.656 33.104 9.072 33.392 7.632 32.976C6 32.528 5.28 31.328 5.472 29.376C5.536 28 5.952 26.176 6.72 23.904C7.488 21.6 8.08 19.872 8.496 18.72C8.912 17.536 9.2 16.64 9.36 16.032L10.992 10.128Z"/>
<path d="M35.2541 31.824C34.8701 32.592 34.2941 33.264 33.5261 33.84C32.7901 34.448 32.0381 34.864 31.2701 35.088C30.5341 35.344 30.0381 35.472 29.7821 35.472C29.5261 35.472 28.8701 35.392 27.8141 35.232H27.7661C27.7341 35.232 27.6861 35.2 27.6221 35.136C25.9581 34.368 25.1261 33.328 25.1261 32.016C25.1261 30.864 25.7181 29.712 26.9021 28.56C28.5021 27.024 30.2301 26.32 32.0861 26.448C32.3101 26.48 32.8381 26.608 33.6701 26.832C33.7661 26.928 33.8301 26.976 33.8621 26.976C35.6861 28.384 36.1501 30 35.2541 31.824Z"/>
<path d="M43.047 9.12002C43.111 8.51202 43.495 8.01602 44.199 7.63202C44.903 7.24802 45.687 7.05602 46.551 7.05602C47.415 7.05602 48.247 7.26402 49.047 7.68002C49.879 8.06402 50.439 8.73602 50.727 9.69602C53.447 7.32802 55.927 6.41602 58.167 6.96002C58.935 7.12002 59.591 7.56802 60.135 8.30402C61.767 6.73602 63.575 5.71202 65.559 5.23202C68.055 5.13601 69.847 5.71202 70.935 6.96002C71.095 7.12002 71.255 7.29602 71.415 7.48802C71.863 7.96802 72.119 8.28802 72.183 8.44802C72.759 9.34402 72.919 11.408 72.663 14.64C72.311 18.832 71.511 23.04 70.263 27.264C69.591 29.408 68.983 30.512 68.439 30.576C68.119 30.64 67.815 30.64 67.527 30.576C67.271 30.512 67.031 30.464 66.807 30.432C66.615 30.432 66.503 30.624 66.471 31.008C65.831 31.84 64.855 32.256 63.543 32.256C62.263 32.256 61.175 31.856 60.279 31.056C59.287 30.224 58.935 29.248 59.223 28.128C59.543 26.976 59.895 25.808 60.279 24.624C60.663 23.408 61.079 22.16 61.527 20.88C62.295 18.64 63.143 16.304 64.071 13.872C63.399 14.64 62.487 16.096 61.335 18.24C60.183 20.352 59.463 21.616 59.175 22.032C58.631 23.12 58.183 23.984 57.831 24.624C57.479 25.232 56.999 25.728 56.391 26.112C55.815 26.464 55.271 26.688 54.759 26.784C54.279 26.88 53.815 26.896 53.367 26.832C52.311 26.672 51.559 26.224 51.111 25.488C51.015 25.232 50.919 24.976 50.823 24.72C50.727 24.464 50.647 24.112 50.583 23.664C50.487 22.672 50.615 21.056 50.967 18.816L50.871 18.96C51.255 18.576 51.383 18.48 51.255 18.672C49.975 20.496 49.207 21.664 48.951 22.176C48.695 22.688 48.423 23.264 48.135 23.904C47.847 24.512 47.511 25.232 47.127 26.064C46.743 26.864 46.439 27.584 46.215 28.224C45.991 28.864 45.719 29.488 45.399 30.096C43.959 32.592 41.431 33.6 37.815 33.12C37.047 33.024 36.391 32.832 35.847 32.544C35.303 32.288 35.079 31.888 35.175 31.344C35.431 30.064 36.023 27.936 36.951 24.96C38.775 19.072 39.863 15.28 40.215 13.584C40.439 13.008 40.631 12.416 40.791 11.808C40.983 11.2 41.175 10.672 41.367 10.224C41.751 9.16802 42.311 8.80002 43.047 9.12002ZM59.703 20.976V21.072C59.767 20.944 59.767 20.912 59.703 20.976Z"/>
<path d="M89.9239 22.896C89.3159 23.184 88.7239 23.408 88.1479 23.568C87.5719 23.728 86.8999 23.888 86.1319 24.048C84.1159 24.464 82.6599 24.704 81.7639 24.768C81.8599 25.088 82.3399 25.472 83.2039 25.92C83.7799 26.016 84.4039 25.936 85.0759 25.68C85.7799 25.392 86.4999 25.136 87.2359 24.912C88.0039 24.656 88.7399 24.512 89.4439 24.48C90.1799 24.448 90.8679 24.72 91.5079 25.296C91.7639 25.872 91.9719 26.208 92.1319 26.304C92.2919 26.4 92.4359 26.448 92.5639 26.448C92.6919 26.448 92.8359 26.496 92.9959 26.592C93.1559 26.688 93.3799 27.056 93.6679 27.696C93.9879 28.336 93.9079 28.944 93.4279 29.52C92.9799 30.096 92.2759 30.592 91.3159 31.008C90.3559 31.424 89.2359 31.76 87.9559 32.016C86.6759 32.272 85.3959 32.448 84.1159 32.544C81.2359 32.768 79.0439 32.544 77.5399 31.872C75.3639 31.136 73.9559 29.68 73.3159 27.504C72.4839 24.624 72.9479 21.264 74.7079 17.424C75.5079 15.632 76.7719 13.712 78.4999 11.664C80.0039 9.87202 81.6839 8.57602 83.5399 7.77602C85.6839 6.84802 87.9239 6.41602 90.2599 6.48002C92.7559 6.54402 94.4839 7.63202 95.4439 9.74402C95.9239 10.864 96.0199 12.432 95.7319 14.448C95.2199 17.072 94.5479 18.928 93.7159 20.016C92.8839 21.072 91.6199 22.032 89.9239 22.896ZM87.1399 15.312C85.4439 14.96 84.1159 15.92 83.1559 18.192C82.8679 18.8 82.6439 19.44 82.4839 20.112C83.5719 20.24 84.7239 19.632 85.9399 18.288C86.3879 17.744 86.7239 17.2 86.9479 16.656C87.1719 16.08 87.2359 15.632 87.1399 15.312Z"/>
</mask>
<path d="M10.992 10.128C11.44 8.97602 12.064 8.11202 12.864 7.53602C13.696 6.92802 14.48 6.56002 15.216 6.43202C15.984 6.27202 16.608 6.35202 17.088 6.67202C17.6 6.99202 17.776 7.48802 17.616 8.16002C18.224 7.55202 19.104 6.99202 20.256 6.48002C21.408 5.96802 22.32 5.61602 22.992 5.42402C23.664 5.23202 24.24 5.13602 24.72 5.13602C25.776 5.20002 26.08 5.77602 25.632 6.86402C26.176 6.96002 26.576 7.31202 26.832 7.92002C27.088 8.52802 27.12 9.20002 26.928 9.93602C26.736 10.672 26.304 11.392 25.632 12.096C24.96 12.8 24.048 13.28 22.896 13.536C21.776 13.792 20.832 14.384 20.064 15.312C19.328 16.208 18.672 17.328 18.096 18.672C17.136 20.944 16.272 24.16 15.504 28.32C15.248 29.824 14.208 31.088 12.384 32.112C10.656 33.104 9.072 33.392 7.632 32.976C6 32.528 5.28 31.328 5.472 29.376C5.536 28 5.952 26.176 6.72 23.904C7.488 21.6 8.08 19.872 8.496 18.72C8.912 17.536 9.2 16.64 9.36 16.032L10.992 10.128Z" fill="white"/>
<path d="M35.2541 31.824C34.8701 32.592 34.2941 33.264 33.5261 33.84C32.7901 34.448 32.0381 34.864 31.2701 35.088C30.5341 35.344 30.0381 35.472 29.7821 35.472C29.5261 35.472 28.8701 35.392 27.8141 35.232H27.7661C27.7341 35.232 27.6861 35.2 27.6221 35.136C25.9581 34.368 25.1261 33.328 25.1261 32.016C25.1261 30.864 25.7181 29.712 26.9021 28.56C28.5021 27.024 30.2301 26.32 32.0861 26.448C32.3101 26.48 32.8381 26.608 33.6701 26.832C33.7661 26.928 33.8301 26.976 33.8621 26.976C35.6861 28.384 36.1501 30 35.2541 31.824Z" fill="white"/>
<path d="M43.047 9.12002C43.111 8.51202 43.495 8.01602 44.199 7.63202C44.903 7.24802 45.687 7.05602 46.551 7.05602C47.415 7.05602 48.247 7.26402 49.047 7.68002C49.879 8.06402 50.439 8.73602 50.727 9.69602C53.447 7.32802 55.927 6.41602 58.167 6.96002C58.935 7.12002 59.591 7.56802 60.135 8.30402C61.767 6.73602 63.575 5.71202 65.559 5.23202C68.055 5.13601 69.847 5.71202 70.935 6.96002C71.095 7.12002 71.255 7.29602 71.415 7.48802C71.863 7.96802 72.119 8.28802 72.183 8.44802C72.759 9.34402 72.919 11.408 72.663 14.64C72.311 18.832 71.511 23.04 70.263 27.264C69.591 29.408 68.983 30.512 68.439 30.576C68.119 30.64 67.815 30.64 67.527 30.576C67.271 30.512 67.031 30.464 66.807 30.432C66.615 30.432 66.503 30.624 66.471 31.008C65.831 31.84 64.855 32.256 63.543 32.256C62.263 32.256 61.175 31.856 60.279 31.056C59.287 30.224 58.935 29.248 59.223 28.128C59.543 26.976 59.895 25.808 60.279 24.624C60.663 23.408 61.079 22.16 61.527 20.88C62.295 18.64 63.143 16.304 64.071 13.872C63.399 14.64 62.487 16.096 61.335 18.24C60.183 20.352 59.463 21.616 59.175 22.032C58.631 23.12 58.183 23.984 57.831 24.624C57.479 25.232 56.999 25.728 56.391 26.112C55.815 26.464 55.271 26.688 54.759 26.784C54.279 26.88 53.815 26.896 53.367 26.832C52.311 26.672 51.559 26.224 51.111 25.488C51.015 25.232 50.919 24.976 50.823 24.72C50.727 24.464 50.647 24.112 50.583 23.664C50.487 22.672 50.615 21.056 50.967 18.816L50.871 18.96C51.255 18.576 51.383 18.48 51.255 18.672C49.975 20.496 49.207 21.664 48.951 22.176C48.695 22.688 48.423 23.264 48.135 23.904C47.847 24.512 47.511 25.232 47.127 26.064C46.743 26.864 46.439 27.584 46.215 28.224C45.991 28.864 45.719 29.488 45.399 30.096C43.959 32.592 41.431 33.6 37.815 33.12C37.047 33.024 36.391 32.832 35.847 32.544C35.303 32.288 35.079 31.888 35.175 31.344C35.431 30.064 36.023 27.936 36.951 24.96C38.775 19.072 39.863 15.28 40.215 13.584C40.439 13.008 40.631 12.416 40.791 11.808C40.983 11.2 41.175 10.672 41.367 10.224C41.751 9.16802 42.311 8.80002 43.047 9.12002ZM59.703 20.976V21.072C59.767 20.944 59.767 20.912 59.703 20.976Z" fill="white"/>
<path d="M89.9239 22.896C89.3159 23.184 88.7239 23.408 88.1479 23.568C87.5719 23.728 86.8999 23.888 86.1319 24.048C84.1159 24.464 82.6599 24.704 81.7639 24.768C81.8599 25.088 82.3399 25.472 83.2039 25.92C83.7799 26.016 84.4039 25.936 85.0759 25.68C85.7799 25.392 86.4999 25.136 87.2359 24.912C88.0039 24.656 88.7399 24.512 89.4439 24.48C90.1799 24.448 90.8679 24.72 91.5079 25.296C91.7639 25.872 91.9719 26.208 92.1319 26.304C92.2919 26.4 92.4359 26.448 92.5639 26.448C92.6919 26.448 92.8359 26.496 92.9959 26.592C93.1559 26.688 93.3799 27.056 93.6679 27.696C93.9879 28.336 93.9079 28.944 93.4279 29.52C92.9799 30.096 92.2759 30.592 91.3159 31.008C90.3559 31.424 89.2359 31.76 87.9559 32.016C86.6759 32.272 85.3959 32.448 84.1159 32.544C81.2359 32.768 79.0439 32.544 77.5399 31.872C75.3639 31.136 73.9559 29.68 73.3159 27.504C72.4839 24.624 72.9479 21.264 74.7079 17.424C75.5079 15.632 76.7719 13.712 78.4999 11.664C80.0039 9.87202 81.6839 8.57602 83.5399 7.77602C85.6839 6.84802 87.9239 6.41602 90.2599 6.48002C92.7559 6.54402 94.4839 7.63202 95.4439 9.74402C95.9239 10.864 96.0199 12.432 95.7319 14.448C95.2199 17.072 94.5479 18.928 93.7159 20.016C92.8839 21.072 91.6199 22.032 89.9239 22.896ZM87.1399 15.312C85.4439 14.96 84.1159 15.92 83.1559 18.192C82.8679 18.8 82.6439 19.44 82.4839 20.112C83.5719 20.24 84.7239 19.632 85.9399 18.288C86.3879 17.744 86.7239 17.2 86.9479 16.656C87.1719 16.08 87.2359 15.632 87.1399 15.312Z" fill="white"/>
<path d="M10.992 10.128C11.44 8.97602 12.064 8.11202 12.864 7.53602C13.696 6.92802 14.48 6.56002 15.216 6.43202C15.984 6.27202 16.608 6.35202 17.088 6.67202C17.6 6.99202 17.776 7.48802 17.616 8.16002C18.224 7.55202 19.104 6.99202 20.256 6.48002C21.408 5.96802 22.32 5.61602 22.992 5.42402C23.664 5.23202 24.24 5.13602 24.72 5.13602C25.776 5.20002 26.08 5.77602 25.632 6.86402C26.176 6.96002 26.576 7.31202 26.832 7.92002C27.088 8.52802 27.12 9.20002 26.928 9.93602C26.736 10.672 26.304 11.392 25.632 12.096C24.96 12.8 24.048 13.28 22.896 13.536C21.776 13.792 20.832 14.384 20.064 15.312C19.328 16.208 18.672 17.328 18.096 18.672C17.136 20.944 16.272 24.16 15.504 28.32C15.248 29.824 14.208 31.088 12.384 32.112C10.656 33.104 9.072 33.392 7.632 32.976C6 32.528 5.28 31.328 5.472 29.376C5.536 28 5.952 26.176 6.72 23.904C7.488 21.6 8.08 19.872 8.496 18.72C8.912 17.536 9.2 16.64 9.36 16.032L10.992 10.128Z" stroke="black" stroke-width="10" mask="url(#path-1-outside-1_46_1510)"/>
<path d="M35.2541 31.824C34.8701 32.592 34.2941 33.264 33.5261 33.84C32.7901 34.448 32.0381 34.864 31.2701 35.088C30.5341 35.344 30.0381 35.472 29.7821 35.472C29.5261 35.472 28.8701 35.392 27.8141 35.232H27.7661C27.7341 35.232 27.6861 35.2 27.6221 35.136C25.9581 34.368 25.1261 33.328 25.1261 32.016C25.1261 30.864 25.7181 29.712 26.9021 28.56C28.5021 27.024 30.2301 26.32 32.0861 26.448C32.3101 26.48 32.8381 26.608 33.6701 26.832C33.7661 26.928 33.8301 26.976 33.8621 26.976C35.6861 28.384 36.1501 30 35.2541 31.824Z" stroke="black" stroke-width="10" mask="url(#path-1-outside-1_46_1510)"/>
<path d="M43.047 9.12002C43.111 8.51202 43.495 8.01602 44.199 7.63202C44.903 7.24802 45.687 7.05602 46.551 7.05602C47.415 7.05602 48.247 7.26402 49.047 7.68002C49.879 8.06402 50.439 8.73602 50.727 9.69602C53.447 7.32802 55.927 6.41602 58.167 6.96002C58.935 7.12002 59.591 7.56802 60.135 8.30402C61.767 6.73602 63.575 5.71202 65.559 5.23202C68.055 5.13601 69.847 5.71202 70.935 6.96002C71.095 7.12002 71.255 7.29602 71.415 7.48802C71.863 7.96802 72.119 8.28802 72.183 8.44802C72.759 9.34402 72.919 11.408 72.663 14.64C72.311 18.832 71.511 23.04 70.263 27.264C69.591 29.408 68.983 30.512 68.439 30.576C68.119 30.64 67.815 30.64 67.527 30.576C67.271 30.512 67.031 30.464 66.807 30.432C66.615 30.432 66.503 30.624 66.471 31.008C65.831 31.84 64.855 32.256 63.543 32.256C62.263 32.256 61.175 31.856 60.279 31.056C59.287 30.224 58.935 29.248 59.223 28.128C59.543 26.976 59.895 25.808 60.279 24.624C60.663 23.408 61.079 22.16 61.527 20.88C62.295 18.64 63.143 16.304 64.071 13.872C63.399 14.64 62.487 16.096 61.335 18.24C60.183 20.352 59.463 21.616 59.175 22.032C58.631 23.12 58.183 23.984 57.831 24.624C57.479 25.232 56.999 25.728 56.391 26.112C55.815 26.464 55.271 26.688 54.759 26.784C54.279 26.88 53.815 26.896 53.367 26.832C52.311 26.672 51.559 26.224 51.111 25.488C51.015 25.232 50.919 24.976 50.823 24.72C50.727 24.464 50.647 24.112 50.583 23.664C50.487 22.672 50.615 21.056 50.967 18.816L50.871 18.96C51.255 18.576 51.383 18.48 51.255 18.672C49.975 20.496 49.207 21.664 48.951 22.176C48.695 22.688 48.423 23.264 48.135 23.904C47.847 24.512 47.511 25.232 47.127 26.064C46.743 26.864 46.439 27.584 46.215 28.224C45.991 28.864 45.719 29.488 45.399 30.096C43.959 32.592 41.431 33.6 37.815 33.12C37.047 33.024 36.391 32.832 35.847 32.544C35.303 32.288 35.079 31.888 35.175 31.344C35.431 30.064 36.023 27.936 36.951 24.96C38.775 19.072 39.863 15.28 40.215 13.584C40.439 13.008 40.631 12.416 40.791 11.808C40.983 11.2 41.175 10.672 41.367 10.224C41.751 9.16802 42.311 8.80002 43.047 9.12002ZM59.703 20.976V21.072C59.767 20.944 59.767 20.912 59.703 20.976Z" stroke="black" stroke-width="10" mask="url(#path-1-outside-1_46_1510)"/>
<path d="M89.9239 22.896C89.3159 23.184 88.7239 23.408 88.1479 23.568C87.5719 23.728 86.8999 23.888 86.1319 24.048C84.1159 24.464 82.6599 24.704 81.7639 24.768C81.8599 25.088 82.3399 25.472 83.2039 25.92C83.7799 26.016 84.4039 25.936 85.0759 25.68C85.7799 25.392 86.4999 25.136 87.2359 24.912C88.0039 24.656 88.7399 24.512 89.4439 24.48C90.1799 24.448 90.8679 24.72 91.5079 25.296C91.7639 25.872 91.9719 26.208 92.1319 26.304C92.2919 26.4 92.4359 26.448 92.5639 26.448C92.6919 26.448 92.8359 26.496 92.9959 26.592C93.1559 26.688 93.3799 27.056 93.6679 27.696C93.9879 28.336 93.9079 28.944 93.4279 29.52C92.9799 30.096 92.2759 30.592 91.3159 31.008C90.3559 31.424 89.2359 31.76 87.9559 32.016C86.6759 32.272 85.3959 32.448 84.1159 32.544C81.2359 32.768 79.0439 32.544 77.5399 31.872C75.3639 31.136 73.9559 29.68 73.3159 27.504C72.4839 24.624 72.9479 21.264 74.7079 17.424C75.5079 15.632 76.7719 13.712 78.4999 11.664C80.0039 9.87202 81.6839 8.57602 83.5399 7.77602C85.6839 6.84802 87.9239 6.41602 90.2599 6.48002C92.7559 6.54402 94.4839 7.63202 95.4439 9.74402C95.9239 10.864 96.0199 12.432 95.7319 14.448C95.2199 17.072 94.5479 18.928 93.7159 20.016C92.8839 21.072 91.6199 22.032 89.9239 22.896ZM87.1399 15.312C85.4439 14.96 84.1159 15.92 83.1559 18.192C82.8679 18.8 82.6439 19.44 82.4839 20.112C83.5719 20.24 84.7239 19.632 85.9399 18.288C86.3879 17.744 86.7239 17.2 86.9479 16.656C87.1719 16.08 87.2359 15.632 87.1399 15.312Z" stroke="black" stroke-width="10" mask="url(#path-1-outside-1_46_1510)"/>
</svg>
