<svg width="16" height="37" viewBox="0 0 16 37" fill="none" xmlns="http://www.w3.org/2000/svg">
<path d="M14.024 0.00799561H15.496V5.70399H13.576C11.5707 5.70399 9.37335 6.51466 6.98402 8.13599V37H0.968018V0.199993H6.72802V2.88799C6.85602 2.80266 7.09068 2.63199 7.43202 2.376C7.81602 2.11999 8.05068 1.97066 8.13602 1.92799C8.26402 1.84266 8.47735 1.69333 8.77602 1.48C9.11735 1.26666 9.35202 1.13866 9.48002 1.09599C9.60802 1.05333 9.80002 0.967995 10.056 0.839996C10.3547 0.669329 10.5894 0.562661 10.76 0.519993C10.9307 0.477327 11.144 0.413328 11.4 0.327995C11.6987 0.199994 11.976 0.135994 12.232 0.135994C13 0.0506617 13.5974 0.00799561 14.024 0.00799561Z" fill="black"/>
</svg>
